:FULLY-SPECIFIED
:FORCE-ALL-JOINTS-BE-3DOF
:DEGREES
306
root 8.9999 15.4556 -23.8256 12.1839 57.9708 15.4467
lfemur -16.6872 19.1144 -17.9161
ltibia 51.9721 -0 0
lfoot -17.306 -25.5642 0.000640141
ltoes 58.4537 -0 0
rfemur -54.1441 -20.9158 36.5877
rtibia 57.7649 -0 0
rfoot 17.158 16.6149 0.018152
rtoes -0.164461 0 0
lowerback 9.58137 -3.19843 -8.36792
upperback 5.01567 -4.7828 -3.9804
thorax 0.247132 -2.41715 0.955151
lowerneck -5.63589 -10.3089 -2.25866
upperneck -2.57292 -13.6419 10.5333
head 1.11986 -6.70758 3.31704
lclavicle -3.28844e-14 -1.4045e-14 -6.44569e-32
lhumerus -42.6218 -42.3976 99.5675
lradius 59.1656 -0 0
lwrist 21.36 0 0
lhand 13.44 11.4757 -0.00117002
lfingers 7.12502 -0 0
lthumb 38.3807 37.1655 -0.0026728
rclavicle -3.28844e-14 -1.4045e-14 -6.44569e-32
rhumerus -34.1998 69.5325 -69.0472
rradius 80.5511 -0 0
rwrist 4.64906 0 0
rhand 5.02286 -5.64855 -0.0147615
rfingers 7.12502 -0 0
rthumb 30.3884 -33.1277 -0.0052224
307
root 9.03556 15.4426 -23.7909 12.3034 58.1706 15.8217
lfemur -16.3346 19.0629 -17.9456
ltibia 52.1156 0 0
lfoot -17.3099 -25.9107 0
ltoes 58.5917 0 0
rfemur -55.0266 -21.1301 37.4161
rtibia 57.7782 0 0
rfoot 17.2081 17.352 0
rtoes -0.30275 0 0
lowerback 9.73871 -3.19862 -8.51413
upperback 5.12525 -4.80127 -4.11015
thorax 0.275237 -2.43 0.909921
lowerneck -5.55651 -10.361 -2.27002
upperneck -2.6718 -13.7054 10.7194
head 1.09146 -6.74108 3.37883
lclavicle -3.33958e-14 -1.43125e-14 0
lhumerus -42.4065 -42.5304 99.1545
lradius 59.1219 0 0
lwrist 21.3914 0 0
lhand 13.5646 11.4558 0
lfingers 7.12502 0 0
lthumb 38.4988 37.1176 0
rclavicle -3.33958e-14 -1.43125e-14 0
rhumerus -33.9357 70.9667 -68.9449
rradius 81.2445 0 0
rwrist 3.93263 0 0
rhand 5.47149 -5.7173 0
rfingers 7.12502 0 0
rthumb 30.8196 -753.153 0
308
root 9.01396 15.4579 -23.7247 12.0501 57.3591 15.3742
lfemur -16.1026 19.1935 -17.7335
ltibia 51.5815 -0 0
lfoot -17.7128 -24.3962 -0.103532
ltoes 56.6373 -0 0
rfemur -54.5137 -20.6067 35.4882
rtibia 57.6745 -0 0
rfoot 16.8208 15.8561 0.0982332
rtoes 1.27868 -0 0
lowerback 9.60218 -3.08236 -8.28819
upperback 5.07182 -4.62287 -3.98653
thorax 0.278627 -2.34002 0.895875
lowerneck -5.45053 -10.4549 -2.04828
upperneck -2.86116 -13.8246 10.5399
head 0.98718 -6.81365 3.29898
lclavicle -3.63502e-14 -1.29111e-14 6.86511e-31
lhumerus -42.7191 -43.143 99.847
lradius 59.1605 -0 0
lwrist 21.1018 0 0
lhand 13.6184 11.5518 0.000856172
lfingers 7.12502 -0 0
lthumb 38.5495 37.1991 0.000685146
rclavicle -3.63502e-14 -1.29111e-14 6.86511e-31
rhumerus -30.379 67.9723 -66.0787
rradius 81.1512 -0 0
rwrist 3.14437 0 0
rhand 2.7201 -7.62525 0.983105
rfingers 7.12502 -0 0
rthumb 28.176 -35.1207 0.970222
309
root 8.99235 15.4732 -23.6585 11.8138 56.5465 14.9429
lfemur -15.8698 19.3233 -17.5206
ltibia 51.0474 -0 0
lfoot -18.1184 -22.881 -0.196375
ltoes 54.6829 -0 0
rfemur -54.0216 -20.0675 33.5721
rtibia 57.5707 -0 0
rfoot 16.431 14.3595 0.18632
rtoes 2.86012 -0 0
lowerback 9.46613 -2.96556 -8.06255
upperback 5.01878 -4.44436 -3.86311
thorax 0.281994 -2.25004 0.881835
lowerneck -5.34488 -10.5492 -1.82666
upperneck -3.05023 -13.9443 10.3608
head 0.882983 -6.88636 3.21925
lclavicle -3.93047e-14 -1.15096e-14 1.30076e-30
lhumerus -43.0452 -43.7528 100.551
lradius 59.1991 -0 0
lwrist 20.8123 0 0
lhand 13.6721 11.6479 0.00162225
lfingers 7.12502 -0 0
lthumb 38.6002 37.2807 0.00129819
rclavicle -3.93047e-14 -1.15096e-14 1.30076e-30
rhumerus -27.5846 64.9271 -63.9818
rradius 81.0578 -0 0
rwrist 2.35611 0 0
rhand -0.0636157 -9.57897 1.87294
rfingers 7.12502 -0 0
rthumb 25.4996 -37.1319 1.84808
310
root 8.97075 15.4885 -23.5923 11.5933 55.7331 14.5266
lfemur -15.6364 19.4522 -17.307
ltibia 50.5132 -0 0
lfoot -18.5262 -21.3652 -0.278461
ltoes 52.7285 -0 0
rfemur -53.5506 -19.5133 31.6674
rtibia 57.467 -0 0
rfoot 16.0391 12.8624 0.264195
rtoes 4.44155 -0 0
lowerback 9.33055 -2.84823 -7.83721
upperback 4.96614 -4.26574 -3.73988
thorax 0.28534 -2.16006 0.8678
lowerneck -5.23957 -10.6439 -1.60514
upperneck -3.23901 -14.0646 10.182
head 0.778869 -6.95922 3.13963
lclavicle -4.22591e-14 -1.01082e-14 1.84274e-30
lhumerus -43.3851 -44.3596 101.267
lradius 59.2377 -0 0
lwrist 20.5227 0 0
lhand 13.7259 11.7439 0.00229821
lfingers 7.12502 -0 0
lthumb 38.6508 37.3622 0.00183912
rclavicle -4.22591e-14 -1.01082e-14 1.84274e-30
rhumerus -25.3108 61.8482 -62.4139
rradius 80.9645 -0 0
rwrist 1.56785 0 0
rhand -2.87768 -11.5748 2.66633
rfingers 7.12502 -0 0
rthumb 22.7925 -39.183 2.63053
311
root 8.94914 15.5038 -23.5261 11.3876 54.9187 14.1241
lfemur -15.4023 19.5804 -17.0927
ltibia 49.9791 -0 0
lfoot -18.9361 -19.8489 -0.349728
ltoes 50.7741 -0 0
rfemur -53.101 -18.9446 29.7742
rtibia 57.3633 -0 0
rfoot 15.6453 11.3648 0.331803
rtoes 6.02298 -0 0
lowerback 9.19545 -2.73037 -7.61218
upperback 4.9139 -4.087 -3.61685
thorax 0.288663 -2.07007 0.853772
lowerneck -5.13461 -10.739 -1.38373
upperneck -3.42751 -14.1854 10.0035
head 0.674838 -7.03223 3.06014
lclavicle -4.52136e-14 -8.70678e-15 2.31246e-30
lhumerus -43.7392 -44.9633 101.996
lradius 59.2763 -0 0
lwrist 20.2332 0 0
lhand 13.7796 11.84 0.00288407
lfingers 7.12502 -0 0
lthumb 38.7015 37.4437 0.00230793
rclavicle -4.52136e-14 -8.70678e-15 2.31246e-30
rhumerus -23.4053 58.7457 -61.224
rradius 80.8711 -0 0
rwrist 0.779584 0 0
rhand -5.71963 -13.6085 3.36036
rfingers 7.12502 -0 0
rthumb 20.0573 -41.2702 3.3148
312
root 8.92754 15.5191 -23.4599 11.1957 54.1036 13.7346
lfemur -15.1675 19.7077 -16.8777
ltibia 49.445 -0 0
lfoot -19.3477 -18.332 -0.410122
ltoes 48.8197 -0 0
rfemur -52.6729 -18.3623 27.8921
rtibia 57.2595 -0 0
rfoot 15.2499 9.86673 0.389094
rtoes 7.60441 -0 0
lowerback 9.06083 -2.61198 -7.38744
upperback 4.86206 -3.90815 -3.494
thorax 0.291964 -1.98009 0.83975
lowerneck -5.02998 -10.8344 -1.16242
upperneck -3.61571 -14.3069 9.82528
head 0.570891 -7.10538 2.98076
lclavicle -4.8168e-14 -7.30535e-15 2.70991e-30
lhumerus -44.108 -45.5637 102.738
lradius 59.3149 -0 0
lwrist 19.9436 0 0
lhand 13.8334 11.9361 0.0033798
lfingers 7.12502 -0 0
lthumb 38.7522 37.5252 0.00270463
rclavicle -4.8168e-14 -7.30535e-15 2.70991e-30
rhumerus -21.7682 55.6266 -60.3134
rradius 80.7778 -0 0
rwrist -0.0086775 0 0
rhand -8.5865 -15.6757 3.95238
rfingers 7.12502 -0 0
rthumb 17.297 -43.3892 3.89834
313
root 8.90593 15.5345 -23.3936 11.0167 53.2878 13.3572
lfemur -14.932 19.8341 -16.6619
ltibia 48.9108 -0 0
lfoot -19.7608 -16.8147 -0.459598
ltoes 46.8652 -0 0
rfemur -52.2666 -17.767 26.0209
rtibia 57.1558 -0 0
rfoot 14.853 8.36829 0.436026
rtoes 9.18585 -0 0
lowerback 8.92668 -2.49307 -7.163
upperback 4.81061 -3.7292 -3.37134
thorax 0.295242 -1.8901 0.825733
lowerneck -4.9257 -10.9303 -0.941228
upperneck -3.80363 -14.4289 9.6474
head 0.467027 -7.17868 2.9015
lclavicle -5.11224e-14 -5.90392e-15 3.0351e-30
lhumerus -44.4921 -46.1606 103.494
lradius 59.3535 -0 0
lwrist 19.6541 0 0
lhand 13.8871 12.0321 0.00378541
lfingers 7.12502 -0 0
lthumb 38.8029 37.6068 0.00302921
rclavicle -5.11224e-14 -5.90392e-15 3.0351e-30
rhumerus -20.3313 52.4954 -59.6154
rradius 80.6845 -0 0
rwrist -0.796939 0 0
rhand -11.4749 -17.7715 4.44007
rfingers 7.12502 -0 0
rthumb 14.5152 -45.5353 4.37895
314
root 8.88433 15.5498 -23.3274 10.8499 52.4713 12.991
lfemur -14.6958 19.9598 -16.4455
ltibia 48.3767 -0 0
lfoot -20.175 -15.2972 -0.498117
ltoes 44.9108 -0 0
rfemur -51.8821 -17.1595 24.1604
rtibia 57.052 -0 0
rfoot 14.4551 6.86955 0.472564
rtoes 10.7673 -0 0
lowerback 8.79302 -2.37363 -6.93887
upperback 4.75956 -3.55013 -3.24887
thorax 0.298499 -1.80011 0.811723
lowerneck -4.82176 -11.0266 -0.720138
upperneck -3.99126 -14.5515 9.46984
head 0.363246 -7.25212 2.82237
lclavicle -5.40769e-14 -4.50249e-15 3.28803e-30
lhumerus -44.8918 -46.754 104.264
lradius 59.3921 -0 0
lwrist 19.3645 0 0
lhand 13.9409 12.1282 0.00410089
lfingers 7.12502 -0 0
lthumb 38.8536 37.6883 0.00328166
rclavicle -5.40769e-14 -4.50249e-15 3.28803e-30
rhumerus -19.0469 49.3554 -59.0837
rradius 80.5911 -0 0
rwrist -1.5852 0 0
rhand -14.381 -19.8905 4.82148
rfingers 7.12502 -0 0
rthumb 11.7156 -47.7036 4.75477
315
root 8.86272 15.5651 -23.2612 10.6946 51.6541 12.6352
lfemur -14.4589 20.0846 -16.2283
ltibia 47.8426 -0 0
lfoot -20.5901 -13.7793 -0.525652
ltoes 42.9564 -0 0
rfemur -51.5197 -16.5404 22.3102
rtibia 56.9483 -0 0
rfoot 14.0564 5.37059 0.498682
rtoes 12.3487 -0 0
lowerback 8.65983 -2.25367 -6.71503
upperback 4.7089 -3.37095 -3.12659
thorax 0.301733 -1.71012 0.797718
lowerneck -4.71817 -11.1233 -0.499154
upperneck -4.1786 -14.6746 9.29259
head 0.259551 -7.3257 2.74335
lclavicle -5.70313e-14 -3.10106e-15 3.46869e-30
lhumerus -45.3076 -47.3435 105.048
lradius 59.4307 -0 0
lwrist 19.075 0 0
lhand 13.9947 12.2242 0.00432623
lfingers 7.12502 -0 0
lthumb 38.9043 37.7698 0.00346198
rclavicle -5.70313e-14 -3.10106e-15 3.46869e-30
rhumerus -17.8799 46.209 -58.6849
rradius 80.4978 -0 0
rwrist -2.37346 0 0
rhand -17.3007 -22.0272 5.09506
rfingers 7.12502 -0 0
rthumb 8.90236 -49.8887 5.02429
316
root 8.84112 15.5804 -23.195 10.55 50.8364 12.2892
lfemur -14.2213 20.2085 -16.0103
ltibia 47.3085 -0 0
lfoot -21.0058 -12.2613 -0.542182
ltoes 41.002 -0 0
rfemur -51.1794 -15.9104 20.4699
rtibia 56.8445 -0 0
rfoot 13.6571 3.87148 0.514361
rtoes 13.9301 -0 0
lowerback 8.52712 -2.13319 -6.49149
upperback 4.65863 -3.19167 -3.00448
thorax 0.304945 -1.62013 0.783719
lowerneck -4.61493 -11.2203 -0.278274
upperneck -4.36565 -14.7983 9.11566
head 0.155939 -7.39942 2.66446
lclavicle -5.99858e-14 -1.69963e-15 3.57708e-30
lhumerus -45.7402 -47.9291 105.848
lradius 59.4693 -0 0
lwrist 18.7854 0 0
lhand 14.0484 12.3203 0.00446144
lfingers 7.12502 -0 0
lthumb 38.955 37.8514 0.00357017
rclavicle -5.99858e-14 -1.69963e-15 3.57708e-30
rhumerus -16.8046 43.0579 -58.395
rradius 80.4044 -0 0
rwrist -3.16172 0 0
rhand -20.2297 -24.1759 5.25966
rfingers 7.12502 -0 0
rthumb 6.07993 -52.0852 5.18645
317
root 8.81952 15.5957 -23.1288 10.4156 50.0182 11.9524
lfemur -13.983 20.3316 -15.7917
ltibia 46.7744 -0 0
lfoot -21.4218 -10.7433 -0.547693
ltoes 39.0476 -0 0
rfemur -50.8612 -15.2703 18.6392
rtibia 56.7408 -0 0
rfoot 13.2576 2.3723 0.519588
rtoes 15.5116 -0 0
lowerback 8.3949 -2.01219 -6.26824
upperback 4.60875 -3.01228 -2.88255
thorax 0.308135 -1.53014 0.769725
lowerneck -4.51203 -11.3178 -0.0574987
upperneck -4.55241 -14.9225 8.93905
head 0.0524123 -7.47329 2.58568
lclavicle -6.29402e-14 -2.982e-16 3.61322e-30
lhumerus -46.1901 -48.5105 106.663
lradius 59.5078 -0 0
lwrist 18.4959 0 0
lhand 14.1022 12.4164 0.00450651
lfingers 7.12502 -0 0
lthumb 39.0057 37.9329 0.00360624
rclavicle -6.29402e-14 -2.982e-16 3.61322e-30
rhumerus -15.8012 39.9036 -58.1959
rradius 80.3111 -0 0
rwrist -3.94998 0 0
rhand -23.1633 -26.3307 5.31461
rfingers 7.12502 -0 0
rthumb 3.25285 -54.2875 5.24057
318
root 8.79791 15.611 -23.0626 10.2907 49.1995 11.6241
lfemur -13.7441 20.4539 -15.5723
ltibia 46.2402 -0 0
lfoot -21.8379 -9.22519 -0.542182
ltoes 37.0932 -0 0
rfemur -50.5654 -14.6208 16.8178
rtibia 56.6371 -0 0
rfoot 12.858 0.873115 0.514361
rtoes 17.093 -0 0
lowerback 8.26316 -1.89068 -6.04529
upperback 4.55927 -2.83278 -2.7608
thorax 0.311303 -1.44015 0.755737
lowerneck -4.40948 -11.4156 0.163173
upperneck -4.73889 -15.0473 8.76275
head -0.0510295 -7.54729 2.50703
lclavicle -6.58946e-14 1.10323e-15 3.57708e-30
lhumerus -46.6577 -49.0875 107.495
lradius 59.5464 -0 0
lwrist 18.2063 0 0
lhand 14.156 12.5124 0.00446144
lfingers 7.12502 -0 0
lthumb 39.0563 38.0144 0.00357017
rclavicle -6.58946e-14 1.10323e-15 3.57708e-30
rhumerus -14.8542 36.7472 -58.0742
rradius 80.2178 -0 0
rwrist -4.73825 0 0
rhand -26.0968 -28.4854 5.25966
rfingers 7.12502 -0 0
rthumb 0.425769 -56.4898 5.18645
